/* XPM */
static char *collectible1749202547[] = {
/* columns rows colors chars-per-pixel */
"32 32 217 2 ",
"   c #171336",
".  c #1B163A",
"X  c #111132",
"o  c #151335",
"O  c #1A1539",
"+  c #1F193D",
"@  c #141234",
"#  c #181438",
"$  c #221B3F",
"%  c #201A3E",
"&  c #0D1030",
"*  c #030B27",
"=  c #1D173B",
"-  c #2C2247",
";  c #2D2348",
":  c #31274D",
">  c #33294E",
",  c #2E244A",
"<  c #30254C",
"1  c #2F244B",
"2  c #261D42",
"3  c #231C40",
"4  c #271E43",
"5  c #241D41",
"6  c #32284D",
"7  c #131133",
"8  c #352A4F",
"9  c #1E183C",
"0  c #2B2146",
"q  c #2A2045",
"w  c #362B50",
"e  c #281C3E",
"r  c #1A1639",
"t  c #2F254B",
"y  c #30274C",
"u  c #2C2347",
"i  c #31284D",
"p  c #201B3E",
"a  c #32294D",
"s  c #48152E",
"d  c #3A2445",
"f  c #2D2449",
"g  c #151437",
"h  c #251F43",
"j  c #1F1B3E",
"k  c #1E1A3D",
"l  c #201C3F",
"z  c #211D40",
"x  c #241E42",
"c  c #272044",
"v  c #1C193C",
"b  c #221E41",
"n  c #2A1A3B",
"m  c #790E1C",
"M  c #5B162D",
"N  c #1D193B",
"B  c #30284D",
"V  c #2E254B",
"C  c #2F274C",
"Z  c #31294E",
"A  c #2D244A",
"S  c #2C2449",
"D  c #491E3C",
"F  c #9F0A12",
"G  c #841323",
"H  c #372143",
"J  c #731224",
"K  c #AB070D",
"L  c #AF1017",
"P  c #591D37",
"I  c #141435",
"U  c #3D2444",
"Y  c #920A13",
"T  c #AE070D",
"R  c #B4161C",
"E  c #8B1C2B",
"W  c #33284C",
"Q  c #171538",
"!  c #671629",
"~  c #A3080E",
"^  c #AF0A10",
"/  c #B21218",
"(  c #B22932",
")  c #4F213E",
"_  c #292246",
"`  c #3A1D3B",
"'  c #90070B",
"]  c #B32B31",
"[  c #B82E34",
"{  c #B21116",
"}  c #BF333A",
"|  c #961D28",
" . c #2E2449",
".. c #282145",
"X. c #1B183B",
"o. c #322A4E",
"O. c #332B4F",
"+. c #3A2749",
"@. c #6D1121",
"#. c #9B070B",
"$. c #BF4C52",
"%. c #BC3C42",
"&. c #B31117",
"*. c #C0353B",
"=. c #C23F46",
"-. c #5C1D36",
";. c #5B1A30",
":. c #8F0509",
">. c #AD080D",
",. c #B31218",
"<. c #B10E14",
"1. c #B5151C",
"2. c #C1353C",
"3. c #C95F66",
"4. c #A52630",
"5. c #322247",
"6. c #171436",
"7. c #1C183B",
"8. c #231D40",
"9. c #282044",
"0. c #241E41",
"q. c #1F1A3D",
"w. c #1E193C",
"e. c #241839",
"r. c #750B17",
"t. c #970509",
"y. c #AE080E",
"u. c #B71B21",
"i. c #C23840",
"p. c #CA5960",
"a. c #C0545A",
"s. c #5A1228",
"d. c #251E40",
"f. c #211C3F",
"g. c #271F43",
"h. c #281F44",
"j. c #511A34",
"k. c #8D060A",
"l. c #A7070C",
"z. c #AF070D",
"x. c #B00C11",
"c. c #BC252C",
"v. c #C54249",
"b. c #CA555C",
"n. c #C98488",
"m. c #A2222C",
"M. c #3C2446",
"N. c #770E1C",
"B. c #940509",
"V. c #AC080D",
"C. c #AF090E",
"Z. c #C03037",
"A. c #C74B52",
"S. c #CA878C",
"D. c #BC4E55",
"F. c #472040",
"G. c #2F244A",
"H. c #94070B",
"J. c #98060A",
"K. c #AE080D",
"L. c #B10D12",
"P. c #B81C23",
"I. c #C43F46",
"U. c #C9535A",
"Y. c #CA7379",
"T. c #C48084",
"R. c #4B2443",
"E. c #8E080F",
"W. c #99060A",
"Q. c #B21016",
"!. c #BB232A",
"~. c #C7484F",
"^. c #CA6F75",
"/. c #C3787C",
"(. c #4A2342",
"). c #691224",
"_. c #9A060B",
"`. c #AC070D",
"'. c #B31016",
"]. c #BC232A",
"[. c #C7474E",
"{. c #CA545B",
"}. c #CA6E74",
"|. c #B1383E",
" X c #411F3F",
".X c #412242",
"XX c #930A12",
"oX c #A8070C",
"OX c #B00D13",
"+X c #C33A41",
"@X c #C84E55",
"#X c #C34249",
"$X c #80111E",
"%X c #362649",
"&X c #5A1A31",
"*X c #9A090F",
"=X c #AE090E",
"-X c #B21015",
";X c #B92026",
":X c #BC292F",
">X c #B9252B",
",X c #8C131F",
"<X c #362143",
"1X c #2C1737",
"2X c #640F21",
"3X c #8C0913",
"4X c #9C070C",
"5X c #9A080F",
"6X c #820B15",
"7X c #501026",
"8X c #271B3E",
"9X c #35254A",
"0X c #3C2041",
"qX c #3C1A39",
"wX c #432140",
"eX c #381F40",
"rX c #2F2349",
/* pixels */
"  . X o . o O . o + @ @ . O O X # $   @   o # @ O % o o . @ & * ",
"= - ; : > , < 1 o 2 $ 3 4 5 4 $ O - ; 1 6 1 6 < 2 < ; < > < : 1 ",
"7 ; 6 > 6 1 6 < # ; 1 < < ; < 1 o ; : > > , : < $ < 1 : 6 , : 6 ",
"  6 8 1 ; , > < 9 : > > 6 , : < + 6 > : 1 0 1 < $ : < < 1 q ; , ",
"= 8 8 , , < w < 3 6 < < : , : 1 5 > < < < , > > 5 : 1 : > 1 6 : ",
"o , 1 ; 1 < 6 0 3 : , , : 1 6 < % 1 ; , : , 1 - 3 , 0 , : , < , ",
"# 1 : 6 > : > 1 $ : 1 1 : 1 > : e > : 6 > 1 < ; 2 6 1 : > , < 1 ",
"r t y y t u y i p a i i i , i y s d t , t f a a p t , i a , a a ",
"g h j k l z x j k c v v z j b n m M N v z j b l k c v v z j b l ",
"k B V V B C Z A c B S A Z V B D F G H A Z V B V c B S A Z V B V ",
"g S V C B V B S j A S C Z A C J K L P C Z A C V j A S C Z A C V ",
"I A B Z Z V Z C k V V Z Z A U Y T R E W Z A B B k V V Z Z A B B ",
"Q C Z Z B A Z B l B C B B S ! ~ ^ / ( ) B S B Z l B C B B S B Z ",
"Q A C V A _ C A j V S A A ` ' ] [ { } |  ...A C j V S A A ..A C ",
"X.B o.Z o.C O.B x Z C Z +.@.#.$.%.&.*.=.-.V Z Z x Z C Z o.V Z Z ",
"g A C B Z C B A j V S C ;.:.>.,.<.1.2.3.4.5.C V j V S C Z A C V ",
"6.p 7.8.9.p 8.0.q.9.w.e.r.t.T T y.u.i.p.a.s.d.f.w.g.w.q.g.0.f.6.",
"$ 1 ; < > , : < h.: ; j.k.l.z.z.x.c.v.b.n.m.M.1 5 : ; 1 6 < : ; ",
"# , 1 1 1 , : , % , ; N.B.V.z.C.,.Z.A.b.S.D.F.1 9 1 1 1 < ; : < ",
"@ < 6 1 1 < > , + 1 G.H.J.K.z.L.P.I.U.b.Y.T.R.: $ 6 : : : ; : < ",
"7 < > < 1 < 8 1 $ : < E.W.K.z.Q.!.~.b.b.^./.(.6 2 > : : 6 1 : 1 ",
"X ; < ; ; ; : - % 1 ; )._.`.T '.].[.{.b.}.|. X< $ 1 - ; < , < - ",
"O < 6 : 6 < 8 < 2 6 < .XXXoXz.OXP.+X@Xb.#X$X%X6 5 6 < : > : > : ",
"# ; , 1 < ; < , % 1 ; < &X*XT =X-X;X:X>X,X<X< 1 % : 1 1 1 - 1 , ",
"  4 % + $ 3 2 % + h.9 9 3 1X2X3X4X5X6X7X8X% 5 $ + h.9 9 3 % 5 $ ",
"+ : 1 1 : < 6 , h.: ; , 6 1 9X0XqXwXeXrX6 1 : 1 h.: ; , 6 1 : 1 ",
"  ; 1 < : 1 : ; % , ; < 6 , < 1 % , ; < 6 , < 1 % , ; < 6 , < 1 ",
"o , : 6 6 1 6 < + 1 1 6 6 , : : + 1 1 6 6 , : : + 1 1 6 6 , : : ",
"# < 6 6 : , 6 : $ : < : : ; : 6 $ : < : : ; : 6 $ : < : : ; : 6 ",
"# , < 1 , 0 < , % 1 ; , , q , < % 1 ; , , q , < % 1 ; , , q , < ",
"= : > 6 > < 8 : 2 6 < 6 > 1 6 6 2 6 < 6 > 1 6 6 2 6 < 6 > 1 6 6 ",
"  , < : 6 < : , % 1 ; < 6 , < 1 % 1 ; < 6 , < 1 % 1 ; < 6 , < 1 "
};
