/* XPM */
static char *result[] = {
/* columns rows colors chars-per-pixel */
"128 128 72 1 ",
"  c #030B27",
". c #0D1030",
"X c #111132",
"o c #131133",
"O c #141234",
"+ c #151335",
"@ c #171336",
"# c #141435",
"$ c #151437",
"% c #171436",
"& c #171538",
"* c #181438",
"= c #1A1539",
"- c #1A1639",
"; c #1B163A",
": c #1D173B",
"> c #1B183B",
", c #1C183B",
"< c #1C193C",
"1 c #1E183C",
"2 c #1E193C",
"3 c #1F193D",
"4 c #1E1A3D",
"5 c #1F1A3D",
"6 c #1F1B3E",
"7 c #201A3E",
"8 c #201B3E",
"9 c #221B3F",
"0 c #201C3F",
"q c #211C3F",
"w c #211D40",
"e c #231C40",
"r c #231D40",
"t c #221E41",
"y c #241D41",
"u c #241E41",
"i c #261D42",
"p c #241E42",
"a c #251F43",
"s c #271E43",
"d c #271F43",
"f c #281F44",
"g c #272044",
"h c #282044",
"j c #282145",
"k c #2A2045",
"l c #2B2146",
"z c #292246",
"x c #2C2247",
"c c #2C2347",
"v c #2D2348",
"b c #2C2449",
"n c #2D2449",
"m c #2D244A",
"M c #2E244A",
"N c #2F244B",
"B c #2E254B",
"V c #2F254B",
"C c #2F274C",
"Z c #30254C",
"A c #30274C",
"S c #31274D",
"D c #30284D",
"F c #31284D",
"G c #32284D",
"H c #32294D",
"J c #31294E",
"K c #33294E",
"L c #322A4E",
"P c #332B4F",
"I c #352A4F",
"U c #362B50",
/* pixels */
"@@@@;;;;XXXX++++;;;;++++====;;;;++++3333OOOOOOOO;;;;========XXXX****9999@@@@OOOO@@@@++++****OOOO====7777++++++++;;;;OOOO....    ",
"@@@@;;;;XXXX++++;;;;++++====;;;;++++3333OOOOOOOO;;;;========XXXX****9999@@@@OOOO@@@@++++****OOOO====7777++++++++;;;;OOOO....    ",
"@@@@;;;;XXXX++++;;;;++++====;;;;++++3333OOOOOOOO;;;;========XXXX****9999@@@@OOOO@@@@++++****OOOO====7777++++++++;;;;OOOO....    ",
"@@@@;;;;XXXX++++;;;;++++====;;;;++++3333OOOOOOOO;;;;========XXXX****9999@@@@OOOO@@@@++++****OOOO====7777++++++++;;;;OOOO....    ",
"::::xxxxvvvvSSSSKKKKMMMMZZZZNNNN++++iiii9999eeeessssyyyyssss9999====xxxxvvvvNNNNGGGGNNNNGGGGZZZZiiiiZZZZvvvvZZZZKKKKZZZZSSSSNNNN",
"::::xxxxvvvvSSSSKKKKMMMMZZZZNNNN++++iiii9999eeeessssyyyyssss9999====xxxxvvvvNNNNGGGGNNNNGGGGZZZZiiiiZZZZvvvvZZZZKKKKZZZZSSSSNNNN",
"::::xxxxvvvvSSSSKKKKMMMMZZZZNNNN++++iiii9999eeeessssyyyyssss9999====xxxxvvvvNNNNGGGGNNNNGGGGZZZZiiiiZZZZvvvvZZZZKKKKZZZZSSSSNNNN",
"::::xxxxvvvvSSSSKKKKMMMMZZZZNNNN++++iiii9999eeeessssyyyyssss9999====xxxxvvvvNNNNGGGGNNNNGGGGZZZZiiiiZZZZvvvvZZZZKKKKZZZZSSSSNNNN",
"oooovvvvGGGGKKKKGGGGNNNNGGGGZZZZ****vvvvNNNNZZZZZZZZvvvvZZZZNNNN++++vvvvSSSSKKKKKKKKMMMMSSSSZZZZ9999ZZZZNNNNSSSSGGGGMMMMSSSSGGGG",
"oooovvvvGGGGKKKKGGGGNNNNGGGGZZZZ****vvvvNNNNZZZZZZZZvvvvZZZZNNNN++++vvvvSSSSKKKKKKKKMMMMSSSSZZZZ9999ZZZZNNNNSSSSGGGGMMMMSSSSGGGG",
"oooovvvvGGGGKKKKGGGGNNNNGGGGZZZZ****vvvvNNNNZZZZZZZZvvvvZZZZNNNN++++vvvvSSSSKKKKKKKKMMMMSSSSZZZZ9999ZZZZNNNNSSSSGGGGMMMMSSSSGGGG",
"oooovvvvGGGGKKKKGGGGNNNNGGGGZZZZ****vvvvNNNNZZZZZZZZvvvvZZZZNNNN++++vvvvSSSSKKKKKKKKMMMMSSSSZZZZ9999ZZZZNNNNSSSSGGGGMMMMSSSSGGGG",
"@@@@GGGGIIIINNNNvvvvMMMMKKKKZZZZ1111SSSSKKKKKKKKGGGGMMMMSSSSZZZZ3333GGGGKKKKSSSSNNNNllllNNNNZZZZ9999SSSSZZZZZZZZNNNNkkkkvvvvMMMM",
"@@@@GGGGIIIINNNNvvvvMMMMKKKKZZZZ1111SSSSKKKKKKKKGGGGMMMMSSSSZZZZ3333GGGGKKKKSSSSNNNNllllNNNNZZZZ9999SSSSZZZZZZZZNNNNkkkkvvvvMMMM",
"@@@@GGGGIIIINNNNvvvvMMMMKKKKZZZZ1111SSSSKKKKKKKKGGGGMMMMSSSSZZZZ3333GGGGKKKKSSSSNNNNllllNNNNZZZZ9999SSSSZZZZZZZZNNNNkkkkvvvvMMMM",
"@@@@GGGGIIIINNNNvvvvMMMMKKKKZZZZ1111SSSSKKKKKKKKGGGGMMMMSSSSZZZZ3333GGGGKKKKSSSSNNNNllllNNNNZZZZ9999SSSSZZZZZZZZNNNNkkkkvvvvMMMM",
"::::IIIIIIIIMMMMMMMMZZZZUUUUZZZZeeeeGGGGZZZZZZZZSSSSMMMMSSSSNNNNyyyyKKKKZZZZZZZZZZZZMMMMKKKKKKKKyyyySSSSNNNNSSSSKKKKNNNNGGGGSSSS",
"::::IIIIIIIIMMMMMMMMZZZZUUUUZZZZeeeeGGGGZZZZZZZZSSSSMMMMSSSSNNNNyyyyKKKKZZZZZZZZZZZZMMMMKKKKKKKKyyyySSSSNNNNSSSSKKKKNNNNGGGGSSSS",
"::::IIIIIIIIMMMMMMMMZZZZUUUUZZZZeeeeGGGGZZZZZZZZSSSSMMMMSSSSNNNNyyyyKKKKZZZZZZZZZZZZMMMMKKKKKKKKyyyySSSSNNNNSSSSKKKKNNNNGGGGSSSS",
"::::IIIIIIIIMMMMMMMMZZZZUUUUZZZZeeeeGGGGZZZZZZZZSSSSMMMMSSSSNNNNyyyyKKKKZZZZZZZZZZZZMMMMKKKKKKKKyyyySSSSNNNNSSSSKKKKNNNNGGGGSSSS",
"++++MMMMNNNNvvvvNNNNZZZZGGGGlllleeeeSSSSMMMMMMMMSSSSNNNNGGGGZZZZ7777NNNNvvvvMMMMSSSSMMMMNNNNxxxxeeeeMMMMllllMMMMSSSSMMMMZZZZMMMM",
"++++MMMMNNNNvvvvNNNNZZZZGGGGlllleeeeSSSSMMMMMMMMSSSSNNNNGGGGZZZZ7777NNNNvvvvMMMMSSSSMMMMNNNNxxxxeeeeMMMMllllMMMMSSSSMMMMZZZZMMMM",
"++++MMMMNNNNvvvvNNNNZZZZGGGGlllleeeeSSSSMMMMMMMMSSSSNNNNGGGGZZZZ7777NNNNvvvvMMMMSSSSMMMMNNNNxxxxeeeeMMMMllllMMMMSSSSMMMMZZZZMMMM",
"++++MMMMNNNNvvvvNNNNZZZZGGGGlllleeeeSSSSMMMMMMMMSSSSNNNNGGGGZZZZ7777NNNNvvvvMMMMSSSSMMMMNNNNxxxxeeeeMMMMllllMMMMSSSSMMMMZZZZMMMM",
"****NNNNSSSSGGGGKKKKSSSSKKKKNNNN9999SSSSNNNNNNNNSSSSNNNNKKKKSSSSyyyyKKKKSSSSGGGGKKKKNNNNZZZZvvvviiiiGGGGNNNNSSSSKKKKMMMMZZZZNNNN",
"****NNNNSSSSGGGGKKKKSSSSKKKKNNNN9999SSSSNNNNNNNNSSSSNNNNKKKKSSSSyyyyKKKKSSSSGGGGKKKKNNNNZZZZvvvviiiiGGGGNNNNSSSSKKKKMMMMZZZZNNNN",
"****NNNNSSSSGGGGKKKKSSSSKKKKNNNN9999SSSSNNNNNNNNSSSSNNNNKKKKSSSSyyyyKKKKSSSSGGGGKKKKNNNNZZZZvvvviiiiGGGGNNNNSSSSKKKKMMMMZZZZNNNN",
"****NNNNSSSSGGGGKKKKSSSSKKKKNNNN9999SSSSNNNNNNNNSSSSNNNNKKKKSSSSyyyyKKKKSSSSGGGGKKKKNNNNZZZZvvvviiiiGGGGNNNNSSSSKKKKMMMMZZZZNNNN",
"----VVVVAAAAAAAAVVVVccccAAAAFFFF8888HHHHFFFFFFFFFFFFMMMMFFFFAAAA8888AAAAVVVVMMMMVVVVnnnnHHHHHHHH8888VVVVMMMMFFFFHHHHMMMMHHHHHHHH",
"----VVVVAAAAAAAAVVVVccccAAAAFFFF8888HHHHFFFFFFFFFFFFMMMMFFFFAAAA8888AAAAVVVVMMMMVVVVnnnnHHHHHHHH8888VVVVMMMMFFFFHHHHMMMMHHHHHHHH",
"----VVVVAAAAAAAAVVVVccccAAAAFFFF8888HHHHFFFFFFFFFFFFMMMMFFFFAAAA8888AAAAVVVVMMMMVVVVnnnnHHHHHHHH8888VVVVMMMMFFFFHHHHMMMMHHHHHHHH",
"----VVVVAAAAAAAAVVVVccccAAAAFFFF8888HHHHFFFFFFFFFFFFMMMMFFFFAAAA8888AAAAVVVVMMMMVVVVnnnnHHHHHHHH8888VVVVMMMMFFFFHHHHMMMMHHHHHHHH",
"$$$$aaaa666644440000wwwwpppp66664444gggg<<<<<<<<wwww6666tttt00004444gggg<<<<<<<<wwww6666tttt00004444gggg<<<<<<<<wwww6666tttt0000",
"$$$$aaaa666644440000wwwwpppp66664444gggg<<<<<<<<wwww6666tttt00004444gggg<<<<<<<<wwww6666tttt00004444gggg<<<<<<<<wwww6666tttt0000",
"$$$$aaaa666644440000wwwwpppp66664444gggg<<<<<<<<wwww6666tttt00004444gggg<<<<<<<<wwww6666tttt00004444gggg<<<<<<<<wwww6666tttt0000",
"$$$$aaaa666644440000wwwwpppp66664444gggg<<<<<<<<wwww6666tttt00004444gggg<<<<<<<<wwww6666tttt00004444gggg<<<<<<<<wwww6666tttt0000",
"4444DDDDBBBBBBBBDDDDCCCCJJJJmmmmggggDDDDbbbbmmmmJJJJBBBBDDDDBBBBggggDDDDbbbbmmmmJJJJBBBBDDDDBBBBggggDDDDbbbbmmmmJJJJBBBBDDDDBBBB",
"4444DDDDBBBBBBBBDDDDCCCCJJJJmmmmggggDDDDbbbbmmmmJJJJBBBBDDDDBBBBggggDDDDbbbbmmmmJJJJBBBBDDDDBBBBggggDDDDbbbbmmmmJJJJBBBBDDDDBBBB",
"4444DDDDBBBBBBBBDDDDCCCCJJJJmmmmggggDDDDbbbbmmmmJJJJBBBBDDDDBBBBggggDDDDbbbbmmmmJJJJBBBBDDDDBBBBggggDDDDbbbbmmmmJJJJBBBBDDDDBBBB",
"4444DDDDBBBBBBBBDDDDCCCCJJJJmmmmggggDDDDbbbbmmmmJJJJBBBBDDDDBBBBggggDDDDbbbbmmmmJJJJBBBBDDDDBBBBggggDDDDbbbbmmmmJJJJBBBBDDDDBBBB",
"$$$$bbbbBBBBCCCCDDDDBBBBDDDDbbbb6666mmmmbbbbCCCCJJJJmmmmCCCCBBBB6666mmmmbbbbCCCCJJJJmmmmCCCCBBBB6666mmmmbbbbCCCCJJJJmmmmCCCCBBBB",
"$$$$bbbbBBBBCCCCDDDDBBBBDDDDbbbb6666mmmmbbbbCCCCJJJJmmmmCCCCBBBB6666mmmmbbbbCCCCJJJJmmmmCCCCBBBB6666mmmmbbbbCCCCJJJJmmmmCCCCBBBB",
"$$$$bbbbBBBBCCCCDDDDBBBBDDDDbbbb6666mmmmbbbbCCCCJJJJmmmmCCCCBBBB6666mmmmbbbbCCCCJJJJmmmmCCCCBBBB6666mmmmbbbbCCCCJJJJmmmmCCCCBBBB",
"$$$$bbbbBBBBCCCCDDDDBBBBDDDDbbbb6666mmmmbbbbCCCCJJJJmmmmCCCCBBBB6666mmmmbbbbCCCCJJJJmmmmCCCCBBBB6666mmmmbbbbCCCCJJJJmmmmCCCCBBBB",
"####mmmmDDDDJJJJJJJJBBBBJJJJCCCC4444BBBBBBBBJJJJJJJJmmmmDDDDDDDD4444BBBBBBBBJJJJJJJJmmmmDDDDDDDD4444BBBBBBBBJJJJJJJJmmmmDDDDDDDD",
"####mmmmDDDDJJJJJJJJBBBBJJJJCCCC4444BBBBBBBBJJJJJJJJmmmmDDDDDDDD4444BBBBBBBBJJJJJJJJmmmmDDDDDDDD4444BBBBBBBBJJJJJJJJmmmmDDDDDDDD",
"####mmmmDDDDJJJJJJJJBBBBJJJJCCCC4444BBBBBBBBJJJJJJJJmmmmDDDDDDDD4444BBBBBBBBJJJJJJJJmmmmDDDDDDDD4444BBBBBBBBJJJJJJJJmmmmDDDDDDDD",
"####mmmmDDDDJJJJJJJJBBBBJJJJCCCC4444BBBBBBBBJJJJJJJJmmmmDDDDDDDD4444BBBBBBBBJJJJJJJJmmmmDDDDDDDD4444BBBBBBBBJJJJJJJJmmmmDDDDDDDD",
"&&&&CCCCJJJJJJJJDDDDmmmmJJJJDDDD0000DDDDCCCCDDDDDDDDbbbbDDDDJJJJ0000DDDDCCCCDDDDDDDDbbbbDDDDJJJJ0000DDDDCCCCDDDDDDDDbbbbDDDDJJJJ",
"&&&&CCCCJJJJJJJJDDDDmmmmJJJJDDDD0000DDDDCCCCDDDDDDDDbbbbDDDDJJJJ0000DDDDCCCCDDDDDDDDbbbbDDDDJJJJ0000DDDDCCCCDDDDDDDDbbbbDDDDJJJJ",
"&&&&CCCCJJJJJJJJDDDDmmmmJJJJDDDD0000DDDDCCCCDDDDDDDDbbbbDDDDJJJJ0000DDDDCCCCDDDDDDDDbbbbDDDDJJJJ0000DDDDCCCCDDDDDDDDbbbbDDDDJJJJ",
"&&&&CCCCJJJJJJJJDDDDmmmmJJJJDDDD0000DDDDCCCCDDDDDDDDbbbbDDDDJJJJ0000DDDDCCCCDDDDDDDDbbbbDDDDJJJJ0000DDDDCCCCDDDDDDDDbbbbDDDDJJJJ",
"&&&&mmmmCCCCBBBBmmmmzzzzCCCCmmmm6666BBBBbbbbmmmmmmmmjjjjmmmmCCCC6666BBBBbbbbmmmmmmmmjjjjmmmmCCCC6666BBBBbbbbmmmmmmmmjjjjmmmmCCCC",
"&&&&mmmmCCCCBBBBmmmmzzzzCCCCmmmm6666BBBBbbbbmmmmmmmmjjjjmmmmCCCC6666BBBBbbbbmmmmmmmmjjjjmmmmCCCC6666BBBBbbbbmmmmmmmmjjjjmmmmCCCC",
"&&&&mmmmCCCCBBBBmmmmzzzzCCCCmmmm6666BBBBbbbbmmmmmmmmjjjjmmmmCCCC6666BBBBbbbbmmmmmmmmjjjjmmmmCCCC6666BBBBbbbbmmmmmmmmjjjjmmmmCCCC",
"&&&&mmmmCCCCBBBBmmmmzzzzCCCCmmmm6666BBBBbbbbmmmmmmmmjjjjmmmmCCCC6666BBBBbbbbmmmmmmmmjjjjmmmmCCCC6666BBBBbbbbmmmmmmmmjjjjmmmmCCCC",
">>>>DDDDLLLLJJJJLLLLCCCCPPPPDDDDppppJJJJCCCCJJJJLLLLBBBBJJJJJJJJppppJJJJCCCCJJJJLLLLBBBBJJJJJJJJppppJJJJCCCCJJJJLLLLBBBBJJJJJJJJ",
">>>>DDDDLLLLJJJJLLLLCCCCPPPPDDDDppppJJJJCCCCJJJJLLLLBBBBJJJJJJJJppppJJJJCCCCJJJJLLLLBBBBJJJJJJJJppppJJJJCCCCJJJJLLLLBBBBJJJJJJJJ",
">>>>DDDDLLLLJJJJLLLLCCCCPPPPDDDDppppJJJJCCCCJJJJLLLLBBBBJJJJJJJJppppJJJJCCCCJJJJLLLLBBBBJJJJJJJJppppJJJJCCCCJJJJLLLLBBBBJJJJJJJJ",
">>>>DDDDLLLLJJJJLLLLCCCCPPPPDDDDppppJJJJCCCCJJJJLLLLBBBBJJJJJJJJppppJJJJCCCCJJJJLLLLBBBBJJJJJJJJppppJJJJCCCCJJJJLLLLBBBBJJJJJJJJ",
"$$$$mmmmCCCCDDDDJJJJCCCCDDDDmmmm6666BBBBbbbbCCCCJJJJmmmmCCCCBBBB6666BBBBbbbbCCCCJJJJmmmmCCCCBBBB6666BBBBbbbbCCCCJJJJmmmmCCCCBBBB",
"$$$$mmmmCCCCDDDDJJJJCCCCDDDDmmmm6666BBBBbbbbCCCCJJJJmmmmCCCCBBBB6666BBBBbbbbCCCCJJJJmmmmCCCCBBBB6666BBBBbbbbCCCCJJJJmmmmCCCCBBBB",
"$$$$mmmmCCCCDDDDJJJJCCCCDDDDmmmm6666BBBBbbbbCCCCJJJJmmmmCCCCBBBB6666BBBBbbbbCCCCJJJJmmmmCCCCBBBB6666BBBBbbbbCCCCJJJJmmmmCCCCBBBB",
"$$$$mmmmCCCCDDDDJJJJCCCCDDDDmmmm6666BBBBbbbbCCCCJJJJmmmmCCCCBBBB6666BBBBbbbbCCCCJJJJmmmmCCCCBBBB6666BBBBbbbbCCCCJJJJmmmmCCCCBBBB",
"%%%%8888,,,,rrrrhhhh8888rrrruuuu5555hhhh22222222rrrr8888uuuuqqqq5555hhhh22222222rrrr8888uuuuqqqq2222dddd22225555dddduuuuqqqq%%%%",
"%%%%8888,,,,rrrrhhhh8888rrrruuuu5555hhhh22222222rrrr8888uuuuqqqq5555hhhh22222222rrrr8888uuuuqqqq2222dddd22225555dddduuuuqqqq%%%%",
"%%%%8888,,,,rrrrhhhh8888rrrruuuu5555hhhh22222222rrrr8888uuuuqqqq5555hhhh22222222rrrr8888uuuuqqqq2222dddd22225555dddduuuuqqqq%%%%",
"%%%%8888,,,,rrrrhhhh8888rrrruuuu5555hhhh22222222rrrr8888uuuuqqqq5555hhhh22222222rrrr8888uuuuqqqq2222dddd22225555dddduuuuqqqq%%%%",
"9999NNNNvvvvZZZZKKKKMMMMSSSSZZZZffffSSSSvvvvMMMMGGGGNNNNSSSSNNNNffffSSSSvvvvMMMMGGGGNNNNSSSSNNNNyyyySSSSvvvvNNNNGGGGZZZZSSSSvvvv",
"9999NNNNvvvvZZZZKKKKMMMMSSSSZZZZffffSSSSvvvvMMMMGGGGNNNNSSSSNNNNffffSSSSvvvvMMMMGGGGNNNNSSSSNNNNyyyySSSSvvvvNNNNGGGGZZZZSSSSvvvv",
"9999NNNNvvvvZZZZKKKKMMMMSSSSZZZZffffSSSSvvvvMMMMGGGGNNNNSSSSNNNNffffSSSSvvvvMMMMGGGGNNNNSSSSNNNNyyyySSSSvvvvNNNNGGGGZZZZSSSSvvvv",
"9999NNNNvvvvZZZZKKKKMMMMSSSSZZZZffffSSSSvvvvMMMMGGGGNNNNSSSSNNNNffffSSSSvvvvMMMMGGGGNNNNSSSSNNNNyyyySSSSvvvvNNNNGGGGZZZZSSSSvvvv",
"****MMMMNNNNNNNNNNNNMMMMSSSSMMMM7777MMMMvvvvZZZZGGGGMMMMZZZZNNNN7777MMMMvvvvZZZZGGGGMMMMZZZZNNNN1111NNNNNNNNNNNNZZZZvvvvSSSSZZZZ",
"****MMMMNNNNNNNNNNNNMMMMSSSSMMMM7777MMMMvvvvZZZZGGGGMMMMZZZZNNNN7777MMMMvvvvZZZZGGGGMMMMZZZZNNNN1111NNNNNNNNNNNNZZZZvvvvSSSSZZZZ",
"****MMMMNNNNNNNNNNNNMMMMSSSSMMMM7777MMMMvvvvZZZZGGGGMMMMZZZZNNNN7777MMMMvvvvZZZZGGGGMMMMZZZZNNNN1111NNNNNNNNNNNNZZZZvvvvSSSSZZZZ",
"****MMMMNNNNNNNNNNNNMMMMSSSSMMMM7777MMMMvvvvZZZZGGGGMMMMZZZZNNNN7777MMMMvvvvZZZZGGGGMMMMZZZZNNNN1111NNNNNNNNNNNNZZZZvvvvSSSSZZZZ",
"OOOOZZZZGGGGNNNNNNNNZZZZKKKKMMMM3333NNNNNNNNGGGGGGGGMMMMSSSSSSSS3333NNNNNNNNGGGGGGGGMMMMSSSSSSSS9999GGGGSSSSSSSSSSSSvvvvSSSSZZZZ",
"OOOOZZZZGGGGNNNNNNNNZZZZKKKKMMMM3333NNNNNNNNGGGGGGGGMMMMSSSSSSSS3333NNNNNNNNGGGGGGGGMMMMSSSSSSSS9999GGGGSSSSSSSSSSSSvvvvSSSSZZZZ",
"OOOOZZZZGGGGNNNNNNNNZZZZKKKKMMMM3333NNNNNNNNGGGGGGGGMMMMSSSSSSSS3333NNNNNNNNGGGGGGGGMMMMSSSSSSSS9999GGGGSSSSSSSSSSSSvvvvSSSSZZZZ",
"OOOOZZZZGGGGNNNNNNNNZZZZKKKKMMMM3333NNNNNNNNGGGGGGGGMMMMSSSSSSSS3333NNNNNNNNGGGGGGGGMMMMSSSSSSSS9999GGGGSSSSSSSSSSSSvvvvSSSSZZZZ",
"ooooZZZZKKKKZZZZNNNNZZZZIIIINNNN9999SSSSZZZZSSSSSSSSvvvvSSSSGGGG9999SSSSZZZZSSSSSSSSvvvvSSSSGGGGiiiiKKKKSSSSSSSSGGGGNNNNSSSSNNNN",
"ooooZZZZKKKKZZZZNNNNZZZZIIIINNNN9999SSSSZZZZSSSSSSSSvvvvSSSSGGGG9999SSSSZZZZSSSSSSSSvvvvSSSSGGGGiiiiKKKKSSSSSSSSGGGGNNNNSSSSNNNN",
"ooooZZZZKKKKZZZZNNNNZZZZIIIINNNN9999SSSSZZZZSSSSSSSSvvvvSSSSGGGG9999SSSSZZZZSSSSSSSSvvvvSSSSGGGGiiiiKKKKSSSSSSSSGGGGNNNNSSSSNNNN",
"ooooZZZZKKKKZZZZNNNNZZZZIIIINNNN9999SSSSZZZZSSSSSSSSvvvvSSSSGGGG9999SSSSZZZZSSSSSSSSvvvvSSSSGGGGiiiiKKKKSSSSSSSSGGGGNNNNSSSSNNNN",
"XXXXvvvvZZZZvvvvvvvvvvvvSSSSxxxx7777NNNNvvvvMMMMMMMMkkkkMMMMZZZZ7777NNNNvvvvMMMMMMMMkkkkMMMMZZZZ9999NNNNxxxxvvvvZZZZMMMMZZZZxxxx",
"XXXXvvvvZZZZvvvvvvvvvvvvSSSSxxxx7777NNNNvvvvMMMMMMMMkkkkMMMMZZZZ7777NNNNvvvvMMMMMMMMkkkkMMMMZZZZ9999NNNNxxxxvvvvZZZZMMMMZZZZxxxx",
"XXXXvvvvZZZZvvvvvvvvvvvvSSSSxxxx7777NNNNvvvvMMMMMMMMkkkkMMMMZZZZ7777NNNNvvvvMMMMMMMMkkkkMMMMZZZZ9999NNNNxxxxvvvvZZZZMMMMZZZZxxxx",
"XXXXvvvvZZZZvvvvvvvvvvvvSSSSxxxx7777NNNNvvvvMMMMMMMMkkkkMMMMZZZZ7777NNNNvvvvMMMMMMMMkkkkMMMMZZZZ9999NNNNxxxxvvvvZZZZMMMMZZZZxxxx",
"====ZZZZGGGGSSSSGGGGZZZZIIIIZZZZiiiiGGGGZZZZGGGGKKKKNNNNGGGGGGGGiiiiGGGGZZZZGGGGKKKKNNNNGGGGGGGGyyyyGGGGZZZZSSSSKKKKSSSSKKKKSSSS",
"====ZZZZGGGGSSSSGGGGZZZZIIIIZZZZiiiiGGGGZZZZGGGGKKKKNNNNGGGGGGGGiiiiGGGGZZZZGGGGKKKKNNNNGGGGGGGGyyyyGGGGZZZZSSSSKKKKSSSSKKKKSSSS",
"====ZZZZGGGGSSSSGGGGZZZZIIIIZZZZiiiiGGGGZZZZGGGGKKKKNNNNGGGGGGGGiiiiGGGGZZZZGGGGKKKKNNNNGGGGGGGGyyyyGGGGZZZZSSSSKKKKSSSSKKKKSSSS",
"====ZZZZGGGGSSSSGGGGZZZZIIIIZZZZiiiiGGGGZZZZGGGGKKKKNNNNGGGGGGGGiiiiGGGGZZZZGGGGKKKKNNNNGGGGGGGGyyyyGGGGZZZZSSSSKKKKSSSSKKKKSSSS",
"****vvvvMMMMNNNNZZZZvvvvZZZZMMMM7777NNNNvvvvZZZZGGGGMMMMZZZZNNNN7777NNNNvvvvZZZZGGGGMMMMZZZZNNNN7777SSSSNNNNNNNNNNNNxxxxNNNNMMMM",
"****vvvvMMMMNNNNZZZZvvvvZZZZMMMM7777NNNNvvvvZZZZGGGGMMMMZZZZNNNN7777NNNNvvvvZZZZGGGGMMMMZZZZNNNN7777SSSSNNNNNNNNNNNNxxxxNNNNMMMM",
"****vvvvMMMMNNNNZZZZvvvvZZZZMMMM7777NNNNvvvvZZZZGGGGMMMMZZZZNNNN7777NNNNvvvvZZZZGGGGMMMMZZZZNNNN7777SSSSNNNNNNNNNNNNxxxxNNNNMMMM",
"****vvvvMMMMNNNNZZZZvvvvZZZZMMMM7777NNNNvvvvZZZZGGGGMMMMZZZZNNNN7777NNNNvvvvZZZZGGGGMMMMZZZZNNNN7777SSSSNNNNNNNNNNNNxxxxNNNNMMMM",
"@@@@ssss777733339999eeeeiiii77773333ffff11111111eeee7777yyyy99993333ffff11111111eeee7777yyyy99993333ffff11111111eeee7777yyyy9999",
"@@@@ssss777733339999eeeeiiii77773333ffff11111111eeee7777yyyy99993333ffff11111111eeee7777yyyy99993333ffff11111111eeee7777yyyy9999",
"@@@@ssss777733339999eeeeiiii77773333ffff11111111eeee7777yyyy99993333ffff11111111eeee7777yyyy99993333ffff11111111eeee7777yyyy9999",
"@@@@ssss777733339999eeeeiiii77773333ffff11111111eeee7777yyyy99993333ffff11111111eeee7777yyyy99993333ffff11111111eeee7777yyyy9999",
"3333SSSSNNNNNNNNSSSSZZZZGGGGMMMMffffSSSSvvvvMMMMGGGGNNNNSSSSNNNNffffSSSSvvvvMMMMGGGGNNNNSSSSNNNNffffSSSSvvvvMMMMGGGGNNNNSSSSNNNN",
"3333SSSSNNNNNNNNSSSSZZZZGGGGMMMMffffSSSSvvvvMMMMGGGGNNNNSSSSNNNNffffSSSSvvvvMMMMGGGGNNNNSSSSNNNNffffSSSSvvvvMMMMGGGGNNNNSSSSNNNN",
"3333SSSSNNNNNNNNSSSSZZZZGGGGMMMMffffSSSSvvvvMMMMGGGGNNNNSSSSNNNNffffSSSSvvvvMMMMGGGGNNNNSSSSNNNNffffSSSSvvvvMMMMGGGGNNNNSSSSNNNN",
"3333SSSSNNNNNNNNSSSSZZZZGGGGMMMMffffSSSSvvvvMMMMGGGGNNNNSSSSNNNNffffSSSSvvvvMMMMGGGGNNNNSSSSNNNNffffSSSSvvvvMMMMGGGGNNNNSSSSNNNN",
"@@@@vvvvNNNNZZZZSSSSNNNNSSSSvvvv7777MMMMvvvvZZZZGGGGMMMMZZZZNNNN7777MMMMvvvvZZZZGGGGMMMMZZZZNNNN7777MMMMvvvvZZZZGGGGMMMMZZZZNNNN",
"@@@@vvvvNNNNZZZZSSSSNNNNSSSSvvvv7777MMMMvvvvZZZZGGGGMMMMZZZZNNNN7777MMMMvvvvZZZZGGGGMMMMZZZZNNNN7777MMMMvvvvZZZZGGGGMMMMZZZZNNNN",
"@@@@vvvvNNNNZZZZSSSSNNNNSSSSvvvv7777MMMMvvvvZZZZGGGGMMMMZZZZNNNN7777MMMMvvvvZZZZGGGGMMMMZZZZNNNN7777MMMMvvvvZZZZGGGGMMMMZZZZNNNN",
"@@@@vvvvNNNNZZZZSSSSNNNNSSSSvvvv7777MMMMvvvvZZZZGGGGMMMMZZZZNNNN7777MMMMvvvvZZZZGGGGMMMMZZZZNNNN7777MMMMvvvvZZZZGGGGMMMMZZZZNNNN",
"++++MMMMSSSSGGGGGGGGNNNNGGGGZZZZ3333NNNNNNNNGGGGGGGGMMMMSSSSSSSS3333NNNNNNNNGGGGGGGGMMMMSSSSSSSS3333NNNNNNNNGGGGGGGGMMMMSSSSSSSS",
"++++MMMMSSSSGGGGGGGGNNNNGGGGZZZZ3333NNNNNNNNGGGGGGGGMMMMSSSSSSSS3333NNNNNNNNGGGGGGGGMMMMSSSSSSSS3333NNNNNNNNGGGGGGGGMMMMSSSSSSSS",
"++++MMMMSSSSGGGGGGGGNNNNGGGGZZZZ3333NNNNNNNNGGGGGGGGMMMMSSSSSSSS3333NNNNNNNNGGGGGGGGMMMMSSSSSSSS3333NNNNNNNNGGGGGGGGMMMMSSSSSSSS",
"++++MMMMSSSSGGGGGGGGNNNNGGGGZZZZ3333NNNNNNNNGGGGGGGGMMMMSSSSSSSS3333NNNNNNNNGGGGGGGGMMMMSSSSSSSS3333NNNNNNNNGGGGGGGGMMMMSSSSSSSS",
"****ZZZZGGGGGGGGSSSSMMMMGGGGSSSS9999SSSSZZZZSSSSSSSSvvvvSSSSGGGG9999SSSSZZZZSSSSSSSSvvvvSSSSGGGG9999SSSSZZZZSSSSSSSSvvvvSSSSGGGG",
"****ZZZZGGGGGGGGSSSSMMMMGGGGSSSS9999SSSSZZZZSSSSSSSSvvvvSSSSGGGG9999SSSSZZZZSSSSSSSSvvvvSSSSGGGG9999SSSSZZZZSSSSSSSSvvvvSSSSGGGG",
"****ZZZZGGGGGGGGSSSSMMMMGGGGSSSS9999SSSSZZZZSSSSSSSSvvvvSSSSGGGG9999SSSSZZZZSSSSSSSSvvvvSSSSGGGG9999SSSSZZZZSSSSSSSSvvvvSSSSGGGG",
"****ZZZZGGGGGGGGSSSSMMMMGGGGSSSS9999SSSSZZZZSSSSSSSSvvvvSSSSGGGG9999SSSSZZZZSSSSSSSSvvvvSSSSGGGG9999SSSSZZZZSSSSSSSSvvvvSSSSGGGG",
"****MMMMZZZZNNNNMMMMllllZZZZMMMM7777NNNNvvvvMMMMMMMMkkkkMMMMZZZZ7777NNNNvvvvMMMMMMMMkkkkMMMMZZZZ7777NNNNvvvvMMMMMMMMkkkkMMMMZZZZ",
"****MMMMZZZZNNNNMMMMllllZZZZMMMM7777NNNNvvvvMMMMMMMMkkkkMMMMZZZZ7777NNNNvvvvMMMMMMMMkkkkMMMMZZZZ7777NNNNvvvvMMMMMMMMkkkkMMMMZZZZ",
"****MMMMZZZZNNNNMMMMllllZZZZMMMM7777NNNNvvvvMMMMMMMMkkkkMMMMZZZZ7777NNNNvvvvMMMMMMMMkkkkMMMMZZZZ7777NNNNvvvvMMMMMMMMkkkkMMMMZZZZ",
"****MMMMZZZZNNNNMMMMllllZZZZMMMM7777NNNNvvvvMMMMMMMMkkkkMMMMZZZZ7777NNNNvvvvMMMMMMMMkkkkMMMMZZZZ7777NNNNvvvvMMMMMMMMkkkkMMMMZZZZ",
"::::SSSSKKKKGGGGKKKKZZZZIIIISSSSiiiiGGGGZZZZGGGGKKKKNNNNGGGGGGGGiiiiGGGGZZZZGGGGKKKKNNNNGGGGGGGGiiiiGGGGZZZZGGGGKKKKNNNNGGGGGGGG",
"::::SSSSKKKKGGGGKKKKZZZZIIIISSSSiiiiGGGGZZZZGGGGKKKKNNNNGGGGGGGGiiiiGGGGZZZZGGGGKKKKNNNNGGGGGGGGiiiiGGGGZZZZGGGGKKKKNNNNGGGGGGGG",
"::::SSSSKKKKGGGGKKKKZZZZIIIISSSSiiiiGGGGZZZZGGGGKKKKNNNNGGGGGGGGiiiiGGGGZZZZGGGGKKKKNNNNGGGGGGGGiiiiGGGGZZZZGGGGKKKKNNNNGGGGGGGG",
"::::SSSSKKKKGGGGKKKKZZZZIIIISSSSiiiiGGGGZZZZGGGGKKKKNNNNGGGGGGGGiiiiGGGGZZZZGGGGKKKKNNNNGGGGGGGGiiiiGGGGZZZZGGGGKKKKNNNNGGGGGGGG",
"@@@@MMMMZZZZSSSSGGGGZZZZSSSSMMMM7777NNNNvvvvZZZZGGGGMMMMZZZZNNNN7777NNNNvvvvZZZZGGGGMMMMZZZZNNNN7777NNNNvvvvZZZZGGGGMMMMZZZZNNNN",
"@@@@MMMMZZZZSSSSGGGGZZZZSSSSMMMM7777NNNNvvvvZZZZGGGGMMMMZZZZNNNN7777NNNNvvvvZZZZGGGGMMMMZZZZNNNN7777NNNNvvvvZZZZGGGGMMMMZZZZNNNN",
"@@@@MMMMZZZZSSSSGGGGZZZZSSSSMMMM7777NNNNvvvvZZZZGGGGMMMMZZZZNNNN7777NNNNvvvvZZZZGGGGMMMMZZZZNNNN7777NNNNvvvvZZZZGGGGMMMMZZZZNNNN",
"@@@@MMMMZZZZSSSSGGGGZZZZSSSSMMMM7777NNNNvvvvZZZZGGGGMMMMZZZZNNNN7777NNNNvvvvZZZZGGGGMMMMZZZZNNNN7777NNNNvvvvZZZZGGGGMMMMZZZZNNNN"
};
