/* XPM */
static char *_cb8e104fd294110980215f96e20866fSDNriWyt6lCLzlX9[] = {
/* columns rows colors chars-per-pixel */
"32 32 30 1 ",
"  c #030B27",
". c #0D1030",
"X c #111132",
"o c #171336",
"O c #151437",
"+ c #171538",
"@ c #1B163A",
"# c #1D173B",
"$ c #1B183B",
"% c #1C183B",
"& c #1C193C",
"* c #1F193D",
"= c #1F1B3E",
"- c #221B3F",
"; c #201C3F",
": c #231C40",
"> c #261D42",
", c #281F44",
"< c #272044",
"1 c #2B2146",
"2 c #2C2247",
"3 c #2D2348",
"4 c #2C2449",
"5 c #2F244B",
"6 c #2F254B",
"7 c #31274D",
"8 c #30284D",
"9 c #32284D",
"0 c #352A4F",
"q c #362B50",
/* pixels */
"o@Xo@o@@o*oo@@@X@-oooo@o@-oo@o. ",
"#2379575o>-:>>>-@2359597>7379775",
"X3999597@3575375o3799577-5579579",
"o9053597*7999577*9975157-7555135",
"#00557q7:9777575>9777599>7579597",
"o5535791:7557597-5357551:5157575",
"@5799795-7557597>9799553>9579575",
"@5775279-9999597-7555599-5599599",
"O>***::**<**:*:**<**:*:**<**:*:*",
"*9559595<9559595<9559595<9559595",
"O5559595*5559555*5599555*5559555",
"O5999595*5599599*5599599*5599599",
"+5999599;9599599;9999599*9599599",
"+5555195*5555155*5555155*5555155",
"$9999599:9599599:9599599>9599599",
"O5599595*5559555*5599555*5559555",
"O-%:1-:>*1**:->;*1**:->;*>**>>;O",
";5379577,7359575,7359575>7359773",
"@5555575-5379575-5379575*5557377",
"o7955795*5599577*5599577-9777377",
"X7975705-7777379-7777379>9779575",
"X3733372-5355157-5355157-5237572",
"@7979707>9799599>9799599>9779797",
"@3557375-5379575-5379575-7555255",
"o>-*-:>-*,**:->-*,**:->-*,**:->-",
"*7557795,7359575,7359575,7359575",
"o3577573-5379575-5379575-5379575",
"o5799597*5599577*5599577*5599577",
"@7997597-7777379-7777379-7777379",
"@5755175-5355157-5355157-5355157",
"#7999707>9799599>9799599>9799599",
"o5779775-5379575-5379575-5379575"
};
