/* XPM */
static char *cef88e3a957c4d958b6e74ec3fe149d5dYPOcniUD088DOR9[] = {
/* columns rows colors chars-per-pixel */
"32 32 215 2 ",
"   c #171336",
".  c #1B163A",
"X  c #111132",
"o  c #151335",
"O  c #1A1539",
"+  c #1F193D",
"@  c #141234",
"#  c #181438",
"$  c #221B3F",
"%  c #201A3E",
"&  c #0D1030",
"*  c #030B27",
"=  c #1D173B",
"-  c #2C2247",
";  c #2D2348",
":  c #31274D",
">  c #33294E",
",  c #2E244A",
"<  c #30254C",
"1  c #2F244B",
"2  c #261D42",
"3  c #231C40",
"4  c #271E43",
"5  c #241D41",
"6  c #32284D",
"7  c #131133",
"8  c #352A4F",
"9  c #1E183C",
"0  c #2B2146",
"q  c #2A2045",
"w  c #362B50",
"e  c #1D172E",
"r  c #1D182D",
"t  c #1C162C",
"y  c #131024",
"u  c #1C152C",
"i  c #221B37",
"p  c #2B2144",
"a  c #181327",
"s  c #191427",
"d  c #3C3C3E",
"f  c gray27",
"g  c #2E2C34",
"h  c #1A1527",
"j  c #1F192F",
"k  c #2F244A",
"l  c #1A1639",
"z  c #2F254B",
"x  c #30274C",
"c  c #2C2347",
"v  c #31284D",
"b  c #201B3E",
"n  c #28213E",
"m  c #1B1825",
"M  c gray21",
"N  c gray22",
"B  c #8D8D8D",
"V  c #9D9D9D",
"C  c #9D9C9D",
"Z  c gray45",
"A  c #484848",
"S  c #3C3B3E",
"D  c #1C172D",
"F  c #32294D",
"G  c #151437",
"H  c #251F43",
"J  c #1F1B3E",
"K  c #1E1A3D",
"L  c #201C3F",
"P  c #211D40",
"I  c #241E42",
"U  c #1B1736",
"Y  c #1C1927",
"T  c gray25",
"R  c #979797",
"E  c #9C9C9D",
"W  c #848484",
"Q  c #303033",
"!  c #18162E",
"~  c #201C3E",
"^  c #272044",
"/  c #1C193C",
"(  c #221E41",
")  c #30284D",
"_  c #2E254B",
"`  c #2F274C",
"'  c #31294E",
"]  c #251E3C",
"[  c #211E2C",
"{  c #515151",
"}  c #888888",
"|  c #3A393D",
" . c #1C162D",
".. c #251F41",
"X. c #2C2449",
"o. c #2D244A",
"O. c #191529",
"+. c gray19",
"@. c gray62",
"#. c #9D9D9E",
"$. c gray47",
"%. c #050407",
"&. c #1C1837",
"*. c #141435",
"=. c #27213E",
"-. c #1F1C29",
";. c gray29",
":. c #838383",
">. c #2D2D2F",
",. c #161327",
"<. c #2D254A",
"1. c #171538",
"2. c #161222",
"3. c #898989",
"4. c #656565",
"5. c gray42",
"6. c #9B9B9B",
"7. c gray43",
"8. c gray52",
"9. c #727272",
"0. c #8B8B8B",
"q. c #0E0E0E",
"w. c #2E274A",
"e. c #292246",
"r. c #151121",
"t. c #393939",
"y. c gray40",
"u. c #0B0B0B",
"i. c #1E1E1E",
"p. c gray16",
"a. c gray59",
"s. c #313131",
"d. c #070707",
"f. c #1B1B1B",
"g. c #747474",
"h. c #5B5B5B",
"j. c gray6",
"k. c gray20",
"l. c gray50",
"z. c gray54",
"x. c #2D2449",
"c. c #282145",
"v. c #1B183B",
"b. c #322A4E",
"n. c #171323",
"m. c #222222",
"M. c #6F6F6F",
"N. c #6A6A6A",
"B. c gray58",
"V. c #191919",
"C. c #5A5A5A",
"Z. c #353535",
"A. c #797979",
"S. c #3C3C3C",
"D. c #868686",
"F. c #2F284C",
"G. c #151222",
"H. c #181818",
"J. c gray14",
"K. c gray53",
"L. c gray61",
"P. c #171436",
"I. c #1C183B",
"U. c #231D40",
"Y. c #282044",
"T. c #100D1C",
"R. c gray18",
"E. c gray3",
"W. c gray56",
"Q. c #151515",
"!. c #555555",
"~. c #959595",
"^. c gray26",
"/. c #989898",
"(. c #261E41",
"). c #1E193C",
"_. c #1F1A3D",
"`. c #271F43",
"'. c #241E41",
"]. c #211C3F",
"[. c #161122",
"{. c #444444",
"}. c #939393",
"|. c gray15",
" X c #1D1D1D",
".X c #2F264A",
"XX c #9B9A9B",
"oX c #9A9A9A",
"OX c gray60",
"+X c #989798",
"@X c #2E2349",
"#X c #171222",
"$X c #30274B",
"%X c #9E9D9E",
"&X c #31284C",
"*X c gray55",
"=X c #2F264B",
"-X c #110D1D",
";X c #271E42",
":X c #161124",
">X c #050408",
",X c gray5",
"<X c gray13",
"1X c gray1",
"2X c #0B0811",
"3X c #251D3C",
"4X c #31274C",
"5X c #120F1A",
"6X c #525153",
"7X c #1D1B22",
"8X c #29213F",
"9X c #211B33",
"0X c #2D2B31",
"qX c #3A3A3A",
"wX c #1E1A2A",
/* pixels */
"  . X o . o O . o + @ @ . O O X # $   @   o # @ O % o o . @ & * ",
"= - ; : > , < 1 o 2 $ 3 4 5 4 $ O - ; 1 6 1 6 < 2 < ; < > < : 1 ",
"7 ; 6 > 6 1 6 < # ; 1 < < ; < 1 o ; : > > , : < $ < 1 : 6 , : 6 ",
"  6 8 1 ; , > < 9 : > > 6 , : < + 6 > : 1 0 1 < $ : < < 1 q ; , ",
"= 8 8 , , < w < 3 6 < < : , : 1 5 > < < < , > > 5 : 1 : > 1 6 : ",
"o , 1 ; 1 < 6 0 3 : , , : e r t y u i , : , 1 - 3 , 0 , : , < , ",
"# 1 : 6 > : > 1 $ : p a s d f f f f g h j k < ; 2 6 1 : > , < 1 ",
"l z x x z c x v b n m M N B V V C V Z A S D F F b z , v F , F F ",
"G H J K L P I J U Y T R C C C C E V E E W Q ! ~ K ^ / / P J ( L ",
"K ) _ _ ) ` ' ] [ { V V V V V V V V V V V } |  ...) X.o.' _ ) _ ",
"G X._ ` ) _ ) O.+.V V V V @.@.@.#.@.V V V V $.%.&.o.X.` ' o.` _ ",
"*.o.) ' ' _ =.-.;.V V V V @.@.@.#.@.@.V V V :.>.,.<._ ' ' o.) ) ",
"1.` ' ' ) o.2.N 3.4.4.5.@.6.7.4.4.3.8.4.4.9.V 0.q.w.` ) ) X.) ' ",
"1.o.` _ o.e.r.t.y.u.i.p.W a.s.d.f.g.h.j.i.k.l.z.q.x.X.o.o.c.o.` ",
"v.) b.' b.` n.t.4.m.M.N.+.B.@.V.4.@.C.Z.A.y.S.D.q.F.` ' b._ ' ' ",
"G o.` ) ' ` G.t.4.d.H.J.K.L.@.V.4.@.C.u.H.N V 0.q.x.X.` ' o.` _ ",
"P.b I.U.Y.b T.t.4.R.R 3.E.W.} Q.!.~.C.^.R /.C 0.q.(.)._.`.'.].P.",
"$ 1 ; < > , [.t.M.{.@.}.|.B s. X XM.N.C.@.@.V 0.q..X; 1 6 < : ; ",
"# , 1 1 1 , [.t.XXoX@.@.@.@.OX/.+XL.@.@.@.@.V 0.q.@X1 1 < ; : < ",
"@ < 6 1 1 < #Xt.C @.@.@.@.@.@.@.#.@.@.@.@.@.V 0.q.$X: : : ; : < ",
"7 < > < 1 < n.t.C @.@.@.@.@.@.@.%X@.@.@.@.@.V 0.q.&X: : 6 1 : 1 ",
"X ; < ; ; ; [.t.C @.@.*XD.*X*X} 0.@.@.@.@.%XV 0.q.; - ; < , < - ",
"O < 6 : 6 < n.t.C @.@.@.@.@.@.@.%X@.@.@.@.@.V 0.q.$X< : > : > : ",
"# ; , 1 < ; r.t.C @.@.@.@.@.@.@.#.@.@.@.@.@.V 0.q.=X1 1 1 - 1 , ",
"  4 % + $ 3 -Xt.C %X#.#.%X#.%X%X#.%X#.#.%X#.C 0.q.;X9 9 3 % 5 $ ",
"+ : 1 1 : < 2.t.V @.@.@.@.@.@.@.%X@.@.@.@.@.V 0.q.=X; , 6 1 : 1 ",
"  ; 1 < : 1 [.t.C @.@.@.@.@.@.@.#.@.@.@.@.@.V 0.q.; ; < 6 , < 1 ",
"o , : 6 6 1 2.t.C @.@.@.@.@.@.@.#.@.@.@.@.@.V 0.q.@X1 6 6 , : : ",
"# < 6 6 : , 2.N C @.@.@.@.@.@.@.%X@.@.@.@.@.V 0.q.=X< : : ; : 6 ",
"# , < 1 , :X>X,X|.|.|.|.|.|.|.|.|.|.|.|.|.|.|.<X1X2X3X, , q , < ",
"= : > 4X5X6XA.A.A.A.A.A.A.A.A.A.A.A.A.A.A.A.A.A.A.A.7X8X> 1 6 6 ",
"  , < 4X9X0XqXqXqXqXqXqXqXqXqXqXqXqXqXqXqXqXqXqXqXqXwXp 6 , < 1 "
};
