/* XPM */
static char *_4a217bc21644563980979ece865925fQRTqLekayrSZbvaY[] = {
/* columns rows colors chars-per-pixel */
"32 32 204 2 ",
"   c #020106",
".  c #05030A",
"X  c #0B060B",
"o  c #0A090E",
"O  c #14050B",
"+  c #13090E",
"@  c #1B060C",
"#  c #0A0613",
"$  c #0D0A12",
"%  c #0F091A",
"&  c #130C15",
"*  c #120D1C",
"=  c #180F17",
"-  c #141316",
";  c #15131B",
":  c #1B131B",
">  c #21050D",
",  c #2C080E",
"<  c #30080E",
"1  c #380815",
"2  c #23141D",
"3  c #261C1E",
"4  c #301417",
"5  c #140E22",
"6  c #161221",
"7  c #1A1524",
"8  c #1E1A26",
"9  c #1B132B",
"0  c #1E1B2A",
"q  c #171329",
"w  c #0D1030",
"e  c #151335",
"r  c #1E1430",
"t  c #1F1A35",
"y  c #171538",
"u  c #1A1539",
"i  c #1E1A3D",
"p  c #030B27",
"a  c #261722",
"s  c #291924",
"d  c #221C2A",
"f  c #261B29",
"g  c #341D2B",
"h  c #301D27",
"j  c #211533",
"k  c #231C35",
"l  c #2C1C35",
"z  c #221C3E",
"x  c #281E3E",
"c  c #3E1F32",
"v  c #28262D",
"b  c #33202F",
"n  c #3A212F",
"m  c #2B2433",
"M  c #25213B",
"N  c #2B243C",
"B  c #2E293A",
"V  c #2B2834",
"C  c #312C3C",
"Z  c #382635",
"A  c #2F323D",
"S  c #35343A",
"D  c #3B393A",
"F  c #580F1B",
"G  c #690B1D",
"H  c #730D1E",
"J  c #7B0E1F",
"K  c #6F1B1C",
"L  c #42211D",
"P  c #4A1826",
"I  c #591123",
"U  c #4F1C3E",
"Y  c #670E25",
"T  c #7F0724",
"R  c #691926",
"E  c #432636",
"W  c #472A3B",
"Q  c #533839",
"!  c #422926",
"~  c #683B2F",
"^  c #602032",
"/  c #713132",
"(  c #7E452F",
")  c #634538",
"_  c #744734",
"`  c #241D41",
"'  c #371F40",
"]  c #272044",
"[  c #2C2345",
"{  c #2E244A",
"}  c #322645",
"|  c #392344",
" . c #322A42",
".. c #31264C",
"X. c #32294D",
"o. c #3D2A48",
"O. c #353846",
"+. c #3C3943",
"@. c #3A3449",
"#. c #37304F",
"$. c #372D50",
"%. c #3C3453",
"&. c #3F3854",
"*. c #4F2346",
"=. c #432A4B",
"-. c #4A2749",
";. c #5C2B4A",
":. c #413E4A",
">. c #5A374C",
",. c #413853",
"<. c #4A3B58",
"1. c #672E49",
"2. c #7F2C44",
"3. c #653B4D",
"4. c #72384F",
"5. c #6B3D55",
"6. c #663856",
"7. c #723653",
"8. c #44434C",
"9. c #424046",
"0. c #494651",
"q. c #4C4D5B",
"w. c #52525C",
"e. c #59575A",
"r. c #6D4053",
"t. c #734259",
"y. c #7B4C48",
"u. c #4F4A60",
"i. c #4F5366",
"p. c #595766",
"a. c #635D6D",
"s. c #7C5565",
"d. c #70747B",
"f. c #810B27",
"g. c #93092C",
"h. c #99082A",
"j. c #851220",
"k. c #871629",
"l. c #951328",
"z. c #AF0E2E",
"x. c #BE0E2E",
"c. c #A61629",
"v. c #B91C2B",
"b. c #BA0E30",
"n. c #81302C",
"m. c #933239",
"M. c #B6263D",
"N. c #C50E30",
"B. c #D11B33",
"V. c #EF1C38",
"C. c #FA1636",
"Z. c #F71935",
"A. c #CE223F",
"S. c #D3203B",
"D. c #8F4E3B",
"F. c #93553D",
"G. c #862B45",
"H. c #952643",
"J. c #8F3144",
"K. c #9B3049",
"L. c #A72742",
"P. c #B73F52",
"I. c #BC3345",
"U. c #9A5D45",
"Y. c #875A4C",
"T. c #AD6344",
"R. c #BB6A50",
"E. c #A3715A",
"W. c #B2694B",
"Q. c #CC4F45",
"!. c #C77251",
"~. c #D97753",
"^. c #E1815D",
"/. c #FD8C5F",
"(. c #FD9A73",
"). c #E98563",
"_. c #8D8A86",
"`. c #9B848D",
"'. c #AF9B8D",
"]. c #A39F96",
"[. c #A7A199",
"{. c #868EAA",
"}. c #8994AC",
"|. c #9BA3B2",
" X c #B2ABA1",
".X c #B4B2AE",
"XX c #C09496",
"oX c #C7AE9B",
"OX c #DEB39B",
"+X c #F8AC89",
"@X c #FCB28F",
"#X c #E1AB93",
"$X c #FDB595",
"%X c #C5B6A5",
"&X c #A1ACC9",
"*X c #BFC5D5",
"=X c #DBD4C8",
"-X c #ECDFD1",
";X c #DBE1DF",
":X c #FDEDDA",
">X c #F7EADA",
",X c #FEF4E5",
"<X c #F5F7EA",
"1X c #E4E7E3",
/* pixels */
"e u e e u e u u e i e e u u u e u z e e e e u e u z e e u e w p ",
"i [ { ..X.{ ..{ e ` z ` k ` ` z q ; x { X.{ X...` ..{ ..X.....{ ",
"e { X.X.X.{ X...u { ..[ f * 6 * * d [ X.X.{ ....z ..{ ..X.{ ..X.",
"e X.X.{ { { X...i ..%.. E $ 9     . S @.{ [ { ..z ......{ [ { { ",
"i X.X.{ { ..$...` X.[ Z s.s.l   % 5   ; N { X.X.` ..{ ..X.{ X...",
"e { { { { ..X.[ ` * & -.>.t.h % 5   # # o @.{ [ ` { [ { ..{ ..{ ",
"u { ..X.X...X.{ M % E n X W 2   .   * q . ; V { ` X.X...$.X...{ ",
"u { ....{ [ ..X.z ; n .  XoX) 3 ) !.T.  . B } X.z  .0.&.q.8.} X.",
"y ` i i z ` ` i i k # . =X,X:X:X:X+X~.  X t ` z i N 7 $ ; M ` z ",
"i X.{ { X.{ X.{ ] X.Q . _.[.=X,X=XE.F.4 Q [ X.{ ] X.M d B { ..{ ",
"y { { { X.{ X.{ i ..~ X e.  ].,X].+ ~ ( _ N ..{ i { { X.X.{ { { ",
"y { X.X.X.{ X.{ i { m W.'.v  X:X X! ~.R.Z { X.X.i { { X.X.{ X.X.",
"y { X.X.X.{ X.X.z X.B @ Y.$X@X(.$X(.D.2 B { X.X.z X.{ X.X.{ X.X.",
"y { { { { [ { { i m O l.L U.U.F.U.F./ H ; N { { i { { { { [ { { ",
"u X.<.%.$.u.%.X.z 0 7 g X q.{.i.{.A + f 7 0 [ X.` X.{ X.X.{ X.X.",
"y  .C +.:.S C { i { #.+.# i.&X*X&XO.o 8.%.{ { { i { { { X.{ { { ",
"y z i & - M ` ` i x m E = w.1X<X*XO.. . v z ` z i ` i i ` ` z y ",
"z { { x  .{ ....x * b X : V .X;X}.0 %   * 7 [ { ` ..{ { X.....{ ",
"u { { { { { ..{ m s =.    : p.|.i.&   . l $ m ..i ..{ { ..{ ....",
"e ..X.{ { [ N e.a.o.%   X W 5.>.3.b X   7 ,.p.0.t X.......{ ....",
"e ..X...} _.%X+X>X8.1   a t.r.. 3.r.2 > 1 d.-XOX.X+.} ..X.{ ..{ ",
"e { ..{  .[.^./.`.Z f.  a W g . g 3.a 1 Y p.XX).#XD  .{ ..{ ..[ ",
"u ..X. .; y.L Q.R f.g.  & &       s & 1 g.Y m.n.~ 3 8 X.X...X...",
"u {  .$ , F   c.f.h.z.  . j 9 # 9 j . F b.g.G j.B.< . d [ [ { { ",
"e ` - o @ , K c.h.N.G   r * .   . r j O f.x.H j.v.< . o $ M ` z ",
"i ..:  .P R k.c.c.k.,   *     $ .   5   1 l.H v.> @ d B o X...{ ",
"e { ....1.G.H.J.g } B       d X.7     $ B l c M.P m.{ ..m } ..{ ",
"e { ..X.1.2.5.<.} { $.5   9.,...X.8 . C X.{ ..G.' 6.{ X...{ ....",
"u ..X.X.;.1.=.X.| ..X.#   w...X.` 7   B X.{ -.K.' ........{ ..X.",
"u { ..{ ..*.S.7.I.| v     0.{ ..z 6     8 -.A.V.U ..=.*.o.[ { ..",
"i ..X.G.L.Z.C.C.C.^ 9 9 9 [ X.X.` k I J j.B.C.C.V.L.P.H.4.{ ;.X.",
"e { ....X.....{ z { { ..X.{ ..{ z { { ..X.{ ..{ z { { ..X.{ ..{ "
};
