/* XPM */
static char *ff11570f4e62448fe4af036e23fa7278neVY38ErDDRRpW10[] = {
/* columns rows colors chars-per-pixel */
"32 32 194 2 ",
"   c #020002",
".  c #090103",
"X  c #06030A",
"o  c #0A050B",
"O  c #110908",
"+  c #170408",
"@  c #0D0514",
"#  c #0E0916",
"$  c #0F0619",
"%  c #130615",
"&  c #190712",
"*  c #120A16",
"=  c #1D0913",
"-  c #13061B",
";  c #15091C",
":  c #1A0C1C",
">  c #14111B",
",  c #1F111B",
"<  c #191315",
"1  c #36040C",
"2  c #240D1E",
"3  c #250B16",
"4  c #3B0D1A",
"5  c #27121B",
"6  c #29111A",
"7  c #3A281E",
"8  c #030B27",
"9  c #1A0524",
"0  c #170C21",
"q  c #1A0C23",
"w  c #1C0D29",
"e  c #130621",
"r  c #161021",
"t  c #181025",
"y  c #1C142A",
"u  c #1F1A2D",
"i  c #1D1825",
"p  c #0D1030",
"a  c #151335",
"s  c #171538",
"d  c #1A1539",
"f  c #1E193D",
"g  c #1E1731",
"h  c #220E2F",
"j  c #230D25",
"k  c #251424",
"l  c #2A1323",
"z  c #24142D",
"x  c #2B122A",
"c  c #2C1B2D",
"v  c #391B2D",
"b  c #321529",
"n  c #240E32",
"m  c #241C35",
"M  c #2A1B35",
"N  c #221B3E",
"B  c #2B1E3E",
"V  c #331532",
"C  c #331339",
"Z  c #341C3E",
"A  c #371C37",
"S  c #2E2D2F",
"D  c #392729",
"F  c #3B302C",
"G  c #252237",
"H  c #2C2332",
"J  c #2C273B",
"K  c #2D2C38",
"L  c #3A2034",
"P  c #35253C",
"I  c #342235",
"U  c #4B020D",
"Y  c #590A14",
"T  c #431019",
"R  c #660918",
"E  c #511A20",
"W  c #461D37",
"Q  c #541D39",
"!  c #471526",
"~  c #770C20",
"^  c #422722",
"/  c #422A2D",
"(  c #472529",
")  c #55382F",
"_  c #402832",
"`  c #4A2B36",
"'  c #45373D",
"]  c #573535",
"[  c #7F222A",
"{  c #603639",
"}  c #50463F",
"|  c #241D41",
" . c #2C1D43",
".. c #3E1F40",
"X. c #2B2245",
"o. c #2E244A",
"O. c #322446",
"+. c #312941",
"@. c #31264C",
"#. c #32294D",
"$. c #392B4D",
"%. c #3A2646",
"&. c #3B354A",
"*. c #352C50",
"=. c #3B3354",
"-. c #373353",
";. c #482542",
":. c #5D284B",
">. c #49324C",
",. c #5C344D",
"<. c #5F3146",
"1. c #452D52",
"2. c #4C3956",
"3. c #5C3453",
"4. c #5A3A52",
"5. c #543751",
"6. c #65384A",
"7. c #642E56",
"8. c #663055",
"9. c #4C4B4E",
"0. c #4B4944",
"q. c #585154",
"w. c #654C42",
"e. c #7D4747",
"r. c #725455",
"t. c #756451",
"y. c #4E4464",
"u. c #464461",
"i. c #545267",
"p. c #5A5374",
"a. c #615C7D",
"s. c #64656E",
"d. c #796061",
"f. c #696477",
"g. c #756876",
"h. c #920B23",
"j. c #871829",
"k. c #9D132B",
"l. c #9E1B30",
"z. c #A00E27",
"x. c #AB142B",
"c. c #87272D",
"v. c #BE3939",
"b. c #C23839",
"n. c #8D3943",
"m. c #813542",
"M. c #943A41",
"N. c #844145",
"B. c #884958",
"V. c #A75445",
"C. c #8E6357",
"Z. c #A96754",
"A. c #927066",
"S. c #8B7A70",
"D. c #AC7274",
"F. c #A57666",
"G. c #C97D59",
"H. c #A4806F",
"J. c #BE8E79",
"K. c #A9877C",
"L. c #C59073",
"P. c #685E81",
"I. c #746F8D",
"U. c #847C94",
"Y. c #938E98",
"T. c #979387",
"R. c #BFA68C",
"E. c #918BA6",
"W. c #AFAAA3",
"Q. c #B1A7A3",
"!. c #BDB0B2",
"~. c #C2A892",
"^. c #D8B799",
"/. c #E3AF84",
"(. c #E3B186",
"). c #EDB592",
"_. c #E3B89C",
"`. c #C8BCA2",
"'. c #D9BCA4",
"]. c #CBBEB1",
"[. c #D7C59F",
"{. c #F2C49F",
"}. c #D1C0B2",
"|. c #EACAAA",
" X c #E3CBAF",
".X c #ECD4AE",
"XX c #E7DCBF",
"oX c #E2D6BF",
"OX c #F3DAB4",
"+X c #F0D1B8",
"@X c #F9E3BD",
"#X c #D6CEC6",
"$X c #FAEDC8",
"%X c #EEE3D1",
/* pixels */
"a d a a d a d d a f a a d d d a d N a a a a d a d N a a d a p 8 ",
"f X.o.@.#.o.@.o.a | N | | | M # @ - ;  . .1.3.1.| @.o.@.#.@.@.o.",
"a o.#.#.#.o.#.@.d o.o.@.o.%.A @ 9 ; - - 9 A z @.N @.o.@.#.o.@.#.",
"a #.#.o.o.o.#.@.f @.#.#.X.Z V h 9 - - @ - o X y N @.@.@.o.X.o.o.",
"f #.#.o.o.@.*.@.| #.o.@.Z x j - - w 0 @ n q   k M @.o.@.#.o.#.@.",
"a o.o.o.o.@.#.X.| o.m B y o o o k X   w @     , : m X.o.@.o.@.o.",
"d o.@.#.#.@.#.o.N @.m ..% o ) F._ q @ ; X         > o.@.#.o.@.o.",
"d o.@.@.o.X.@.#.N #.M ;.% { (.|.r.X       @ X     r o.#.#.o.#.#.",
"s | f f N | | &.9.J f z A L.OXXX'.< X X 2 n @     t f f | f | N ",
"f #.o.o.#.o.m S > G o.z / /.t.q.}.F h @ N.T X   X m o.o.#.o.@.o.",
"s o.o.@.#.o.u > f o.o.o.' ^.  +.!.} & 2 D.j.j.k.j.;.o.o.#.o.o.o.",
"s o.#.#.#.o.#.+.f o.o.#.' [.  g.%X^.[ l.k.k.Y U ~ Q o.#.#.o.#.#.",
"s o.#.#.#.o.#.#.N #.o.#.P R.`.oX XM.x.z.R +   + b @.o.#.#.o.#.#.",
"s o.o.o.o.X.o.o.f o.o.o.B ) .X|.e.x.h.+     O c N o.o.o.o.X.o.o.",
"d #.#.#.#.o.#.#.| #.o.#.#.H w.C.E R 1     . c @.| #.o.#.#.o.#.#.",
"s o.o.@.#.o.#.o.f o.o.o.#.o.@.y.H . X X o m o.o.f o.o.=.*.o.o.o.",
"s N f | X.N | | f X.f f | N | -.i.  v v @ m | N f | &.9.J | N s ",
"N o.o.@.#.o.@.@.| @.o.o.#.o.@.a.i.k 7.7.x = $.o.| X.> u o.@.@.X.",
"d o.o.o.o.o.@.o.N o.o.@.#.o.y.f.o : 9 9 %   P o.f o.i o.@.o.@.@.",
"a @.#.o.o.@.#.o.f o.o.#.#.=.p.K   X x V     6 @.N #.@.@.@.o.@.@.",
"a @.#.@.o.@.#.o.N O.O.@.@.2.P.#     W 8., o ; @.| #.@.@.#.o.@.o.",
"a o.@.o.o.o.@.X.X.` ( >.&.C M q @   % j o @ = L N o.X.o.@.o.@.X.",
"d @.#.@.#.@.#.O.` J.{.].f.X @ C ; 0.W.Y.&.# % 6 B #.@.@.#.@.#.@.",
"d o.o.o.@.o.@.v Z.V.G.~.s.o 2 :.L T.#XU.E.G n & z @.o.o.o.X.o.o.",
"a | N f N | | b c.<.A.d.X.N A W l S.Q.f.I.u.n ; 3 B f f | N | N ",
"f @.o.o.@.@.#.o.M.6.o.o.#.o.P V 6.|.$X+X/ r e h @ 5 o.o.#.o.@.o.",
"a o.o.@.@.o.@.o.m.,.6.3.#.o.m l H.@X$XOX7 X n $ @ * o.@.#.o.@.o.",
"a o.@.#.#.o.#.@.%.$.#.#.#.o.X.I K._.).).D   q - . ; o.#.#.o.@.@.",
"d @.#.#.@.o.#.@.e.4.@.@.@.o.@.I ] ( ^ ^ O   0 3 Y 4 @.@.@.o.@.#.",
"d o.@.o.o.X.@.o.B @.5.o.o.X.o.m X   X X X g y 6 W ! o.o.o.X.o.@.",
"f @.#.#.#.@.#.@.X.4.B.>.#.o.#.@.>   @ 0 m o.N N X.v @.#.#.o.#.#.",
"a o.@.@.#.@.5.,.n.v.b.n.6.>.o.* o     r #.o.@.o.N O.o.@.#.o.@.o."
};
