/* XPM */
static char *fc0a855cbd75436bcca30bea8b564d6fgi01901r0UtjBxFV[] = {
/* columns rows colors chars-per-pixel */
"32 32 192 2 ",
"   c #020103",
".  c #0A0203",
"X  c #060209",
"o  c #0B050C",
"O  c #0A080E",
"+  c #11050B",
"@  c #1A040B",
"#  c #140A0C",
"$  c #160103",
"%  c #0C0412",
"&  c #0C0A11",
"*  c #0E0818",
"=  c #0E0518",
"-  c #130515",
";  c #130A15",
":  c #180817",
">  c #11061B",
",  c #130A1B",
"<  c #1A0B1E",
"1  c #1B0517",
"2  c #181311",
"3  c #16131B",
"4  c #18161E",
"5  c #200308",
"6  c #24090E",
"7  c #2F0D1A",
"8  c #380D16",
"9  c #22121E",
"0  c #2C131C",
"q  c #33181C",
"w  c #030B27",
"e  c #1A0626",
"r  c #150A21",
"t  c #1B0D24",
"y  c #1D0C2B",
"u  c #160722",
"i  c #1C1525",
"p  c #1E152B",
"a  c #171322",
"s  c #0D1030",
"d  c #151335",
"f  c #171538",
"g  c #1A1539",
"h  c #1E1A3D",
"j  c #230D21",
"k  c #200E2F",
"l  c #290D2E",
"z  c #231322",
"x  c #2B132C",
"c  c #2D1A2A",
"v  c #261829",
"b  c #34172D",
"n  c #311F28",
"m  c #361C25",
"M  c #240E34",
"N  c #2B1431",
"B  c #231A32",
"V  c #2A1B34",
"C  c #221B3E",
"Z  c #2A1C3D",
"A  c #28123A",
"S  c #341C32",
"D  c #3C1B35",
"F  c #311F3B",
"G  c #39193B",
"H  c #2D2725",
"J  c #3F2E27",
"K  c #2B223B",
"L  c #2C2936",
"P  c #35203C",
"I  c #3B233E",
"U  c #3A2F3B",
"Y  c #392B36",
"T  c #4C040F",
"R  c #42050E",
"E  c #470914",
"W  c #7E0A1E",
"Q  c #70101D",
"!  c #78131D",
"~  c #461C3B",
"^  c #741025",
"/  c #4D322A",
"(  c #46233A",
")  c #443435",
"_  c #4C3631",
"`  c #4B3D30",
"'  c #6F3432",
"]  c #5E4C3E",
"[  c #6E423F",
"{  c #241D41",
"}  c #291F43",
"|  c #381E41",
" . c #272044",
".. c #2B2244",
"X. c #2E244A",
"o. c #2E2B43",
"O. c #322444",
"+. c #31264C",
"@. c #32294D",
"#. c #382948",
"$. c #312945",
"%. c #363149",
"&. c #3A2B50",
"*. c #3A3452",
"=. c #442441",
"-. c #432B45",
";. c #4A2B48",
":. c #57274D",
">. c #5B284A",
",. c #42344D",
"<. c #51314D",
"1. c #5B344C",
"2. c #4B2C51",
"3. c #453C5C",
"4. c #553452",
"5. c #553852",
"6. c #6A3A4D",
"7. c #7B3F4D",
"8. c #463C60",
"9. c #5C4046",
"0. c #464255",
"q. c #484757",
"w. c #4D495A",
"e. c #594856",
"r. c #514D5F",
"t. c #595853",
"y. c #684645",
"u. c #7D554C",
"i. c #7B4351",
"p. c #60515E",
"a. c #7B5653",
"s. c #784848",
"d. c #5D5E66",
"f. c #5E5777",
"g. c #5F5A78",
"h. c #554969",
"j. c #675F78",
"k. c #786468",
"l. c #89091F",
"z. c #851123",
"x. c #991529",
"c. c #B6142F",
"v. c #A41A31",
"b. c #B71430",
"n. c #BE1835",
"m. c #87232B",
"M. c #962736",
"N. c #AF3336",
"B. c #B03539",
"V. c #813D4C",
"C. c #973D47",
"Z. c #903F49",
"A. c #9F3C43",
"S. c #884243",
"D. c #92404B",
"F. c #96514C",
"G. c #A74048",
"H. c #AD5C4C",
"J. c #A36369",
"K. c #A37B71",
"L. c #B87C67",
"P. c #B0806E",
"I. c #BA8B6F",
"U. c #A08879",
"Y. c #BA8770",
"T. c #AC917B",
"R. c #C58261",
"E. c #C68F75",
"W. c #C4957F",
"Q. c #6C6582",
"!. c #867480",
"~. c #AD9487",
"^. c #ABA69A",
"/. c #A49EAD",
"(. c #A19CB7",
"). c #B4A8A0",
"_. c #B8B1AE",
"`. c #C8A48D",
"'. c #C6A491",
"]. c #EBB68D",
"[. c #E0B085",
"{. c #C6B9AC",
"}. c #D8C19A",
"|. c #C9C0BD",
" X c #E5C6A6",
".X c #EFD6AF",
"XX c #E4D7B9",
"oX c #F5D9B7",
"OX c #FBE6BD",
"+X c #CCC7C1",
"@X c #EDE2C7",
"#X c #F8E9C8",
/* pixels */
"d g d d g d g g d h d d g g g d g C d d d d g d g C d d g d s w ",
"h ..X.+.@.X.+.X.d { O.4.2.Z Z u > % , Z @.X.@.+.{ +.X.+.@.+.+.X.",
"d X.@.@.@.X.@.+.g X.X.B =.e > % = e % I | X.+.+.C +.X.+.@.X.+.@.",
"d @.@.X.X.X.@.+.h +.B & X > % > > u l N G } X.+.C +.+.+.X...X.X.",
"h @.@.X.X.+.&.+.{ V c   ; k > > u t - j x F @.X.{ +.X.+.@.X.@.+.",
"d X.X.X.X.+.@...C ; 9     % y   X z . o % p Z B { X...X.+.X.+.X.",
"g X.+.@.@.+.@.X.r         o u % , c P./ o ; | V { @.X.+.@.X.+.X.",
"g X.+.+.X...+.@.t X   X ,       X y.OX].s.< =.K C X.X.@.@.X.@.@.",
"f { h h C { { h y X   % M j X X # '.XX.XI.S B C h  .h h { h { C ",
"h @.X.X.@.X.@.X.C ; . . 8 S.- k H {.U ] [.n Z X. .@.X.X.@.X.@.X.",
"f X.X.X.%.q.@.X.P M.n.v.! J.x @ ) |.L 2 }.U X.X.h X.X.X.@.X.X.X.",
"f X.@.@.B 4 L X.G ^ T T z.x.x.m.'.@Xk.H }.U @.@.h X.X.@.@.X.@.@.",
"f X.@.@.@.Z 3 X.C P 6   . R W c.M.`.@XXXT.$.@.@.C @.X.+.@.X.@.@.",
"f X.X.X.X. ...X.h X.V #     $ l.b.' oX X_  .X.+.h X.X.X.X...X.X.",
"g @.@.@.@.X.@.@.{ @.X.O.#     5 T E a.) K X.@.@.{ @.X.@.@.X.@.@.",
"f X.X.+.@.X.@.X.h X.X.X.K &   X   v 3.+.@.X.X.X.h X.X.X.@.X.X.X.",
"f C h { ..C { { h ..h h K % D ( X q.C h { C { C h { 0.0. .{ C f ",
"C X.X.+.@.X.+.+.} +.X.X.6 x :.:.b %.g.@.@.X.+.X.{ ..i 3 L X.+.X.",
"g X.X.X.X.X.+.X.C X.X.I . o < e -   g.8.@.X.+.X.h X.X.B &  .+.+.",
"d +.@.X.X.+.@.X.h X.X.c     D D     L f.3.X.+.+.C @.+...K ..+.+.",
"d +.@.+.X.+.@.X.C +.O.z ; 9 :.D     , h.&.O.O.F Z @.+.+.@.X.+.X.",
"d X.+.X.X.X.+...C +.S @ < o < 3 X % y < l ,.p.y.9.O...X.+.X.+...",
"g +.@.+.@.+.@.+.{ @.0 % * r./.+Xt.: G -   d.{.].L.[ O.+.@.+.@.+.",
"g X.X.X.+.X.+.X.C S + A o.(.Q._.^.Y >.z a w.~.R.F.H.b X.X...X.X.",
"d { C h C { { C C 0 < M *.j.!.).U.m ~ x { C e.k.;.M.N h { C { C ",
"h +.X.X.+.+.@.X.z + u y , _  X#XoXu.x N @.X.,.<.1.G.X.X.@.X.+.X.",
"d X.X.+.+.X.+.X., % % M   `  XOX#X X: B @.X.<.6.-.V.X.+.@.X.+.X.",
"d X.+.@.@.X.@.+.t @ - y   J Y.E.W.K.v X.@.X.+.+...4.+.+.@.X.+.+.",
"g +.@.@.+.X.@.+.7 Q 8 i ;   . . + q B +.+.X.+.@.-.i.+.+.+.X.+.@.",
"g X.+.X.X...+.X.7 ;.z 4  .& X %      .X.X...@.5.C +.X.X.X...X.+.",
"h +.@.@.@.+.@.+.x #.+.@.@.X.p X   ; K @.@.+.1.C.D.<.+.@.@.X.@.@.",
"d X.+.+.@.+.+.X.C X.X.+.@.X.p X   X & ..5.i.Z.B.N.A.7.6.@.X.+.X."
};
